<?xml version="1.0" encoding="UTF-8"?>
<svg xmlns="http://www.w3.org/2000/svg" viewBox="0 0 82.43 78.27">
  <g id="_лой_1" data-name="Слой 1"/>
  <g id="_лой_2" data-name="Слой 2">
    <g id="Layer_1" data-name="Layer 1">
      <g>
        <path d="M13.92,26.21c.03-4.32,.56-7.9,1.6-9.45,1.31-1.96,4.04-2.95,8.19-2.95V0C16.47,0,10.71,1.93,6.44,5.8,2.16,9.67,.03,15.35,.03,22.84v8.23c-.02,.2-.03,.41-.03,.61v20.26H17.87c3.26,0,5.9-2.74,5.9-6.11V26.21H13.92Z" style="fill: #f1c396;"/>
        <path d="M35.31,52.05c-.03,4.32-.56,7.9-1.6,9.45-1.31,1.96-4.04,2.95-8.19,2.95v13.82c7.24,0,12.99-1.93,17.27-5.8,4.27-3.87,6.41-9.55,6.41-17.04v-8.23c.02-.2,.03-.41,.03-.61V26.32H31.36c-3.26,0-5.9,2.74-5.9,6.11v19.63h9.85Z" style="fill: #f1c396;"/>
        <path d="M82.39,10.09h-5.91c-1.69,0-2.53-.82-2.53-2.46v-3.28c0-1.64,.84-2.46,2.53-2.46h5.91v1.64h-5.91c-.56,0-.84,.27-.84,.82v3.28c0,.55,.28,.82,.84,.82h5.91v1.64Z" style="fill: #f1c396;"/>
        <path d="M36,19.85h.84v3.25h-1.69v-1.63h-5.9v1.63h-1.69v-3.25h.84v-4.2c0-1.63,.84-2.44,2.53-2.44h2.53c1.69,0,2.53,.81,2.53,2.44v4.2Zm-1.69,0v-4.2c0-.54-.28-.81-.84-.81h-2.53c-.56,0-.84,.27-.84,.81v4.2h4.22Z" style="fill: #f1c396;"/>
        <path d="M65.21,21.48h-1.69v-6.51h-2.53c-.41,0-.69,.27-.84,.81l-1.66,5.69h-1.71c1.04-3.25,1.6-5.15,1.69-5.69,.5-1.63,1.34-2.44,2.53-2.44h4.22v8.14Z" style="fill: #f1c396;"/>
        <path d="M74.66,19.17c0,1.63-.84,2.44-2.53,2.44h-3.37c-1.69,0-2.53-.81-2.53-2.44v-3.53c0-1.63,.84-2.44,2.53-2.44h3.37c1.69,0,2.53,.81,2.53,2.44v3.53Zm-1.69,0v-3.53c0-.54-.28-.81-.84-.81h-3.37c-.56,0-.84,.27-.84,.81v3.53c0,.54,.28,.81,.84,.81h3.37c.56,0,.84-.27,.84-.81" style="fill: #f1c396;"/>
        <path d="M43.59,1.9l-5.06,5.68V1.9h-1.69v.46h0V7.78c0,1.35,.57,2.11,1.71,2.29l5.03-5.65v5.68h1.69V1.9h-1.69Z" style="fill: #f1c396;"/>
        <path d="M73.12,3.54V1.9h-8.43v.46h0V7.78c0,1.48,.69,2.25,2.06,2.32h6.37v-1.64h-6.75v-1.64h5.06v-1.64h-5.06v-1.64h6.75Z" style="fill: #f1c396;"/>
        <path d="M62.15,1.9v3.28h-5.06V1.9h-1.69V7.78c0,1.34,.57,2.1,1.69,2.28v-3.24h5.06v3.28h1.69V1.9h-1.69Z" style="fill: #f1c396;"/>
        <path d="M54.56,4.36c0-1.64-.73-2.46-2.18-2.46h-6.25v1.64h5.9c.56,0,.84,.27,.84,.82s-.28,.82-.84,.82h-2.53v1.64h2.53c.56,0,.84,.27,.84,.82s-.28,.82-.84,.82h-5.9v.11c.22,.97,.88,1.47,1.98,1.53h3.92c1.69,0,2.53-.73,2.53-2.18,0-.73-.16-1.37-.49-1.91,.33-.55,.49-1.09,.49-1.64" style="fill: #f1c396;"/>
        <path d="M33.47,5.18h-4.22v-1.64h5.9V1.9h-7.59V7.96c.06,1.36,.74,2.07,2.05,2.13h3.85c1.69,0,2.53-.82,2.53-2.46s-.84-2.46-2.53-2.46m0,3.28h-4.22v-1.64h4.22c.56,0,.84,.27,.84,.82s-.28,.82-.84,.82" style="fill: #f1c396;"/>
        <path d="M44.61,13.34l-5.06,5.64v-5.64h-1.69v5.94c.03,1.28,.6,2,1.71,2.17l5.04-5.61v5.64h1.69V13.34h-1.69Z" style="fill: #f1c396;"/>
        <path d="M53.22,13.21h-3.37c-1.69,0-2.53,.81-2.53,2.44v3.68c.05,1.24,.61,1.95,1.69,2.12v-1.6h5.06v1.63h1.69v-5.83c0-1.63-.84-2.44-2.53-2.44m.84,5.02h-5.06v-2.58c0-.54,.28-.81,.84-.81h3.37c.56,0,.84,.27,.84,.81v2.58Z" style="fill: #f1c396;"/>
        <path d="M75.68,13.34v6.14c.09,1.15,.65,1.8,1.69,1.96v-6.48h5.06v-1.63h-6.75Z" style="fill: #f1c396;"/>
      </g>
    </g>
  </g>
</svg>