<?xml version="1.0" encoding="UTF-8"?>
<svg xmlns="http://www.w3.org/2000/svg" viewBox="0 0 64.62 76.36">
  <g id="_лой_1" data-name="Слой 1"/>
  <g id="_лой_2" data-name="Слой 2">
    <g id="Layer_1" data-name="Layer 1">
      <g>
        <polygon points="22.01 20.61 1.4 41.22 22.01 41.22 22.01 20.61" style="fill: #f1c396;"/>
        <polygon points="22.73 22.36 22.73 41.22 41.59 41.22 22.73 22.36" style="fill: #f1c396;"/>
        <path d="M40.87,.72L22.73,18.86V.72h18.14m1.75-.72H22.01V20.61L42.62,0h0Z" style="fill: #f1c396;"/>
        <path d="M61.48,.72l-18.14,18.14V.72h18.14m1.75-.72h-20.61V20.61L63.23,0h0Z" style="fill: #f1c396;"/>
        <path d="M43.34,22.36l18.14,18.14h-18.14V22.36m-.72-1.75v20.61h20.61l-20.61-20.61h0Z" style="fill: #f1c396;"/>
        <polygon points="22.01 20.61 28.88 27.48 42.62 41.22 42.62 20.61 22.01 20.61" style="fill: #f1c396;"/>
        <polygon points="42.62 19.89 42.62 0 28.88 13.74 22.73 19.89 42.62 19.89" style="fill: #f1c396;"/>
        <g>
          <g>
            <polygon points="6.37 68.91 4.8 68.91 1.16 72.49 1.16 68.91 0 68.91 0 76.22 1.16 76.22 1.16 74.01 2.86 72.39 5.27 76.22 6.65 76.22 3.72 71.55 6.37 68.91" style="fill: #f1c396;"/>
            <path d="M13.94,69.89c-.35-.34-.77-.62-1.24-.83-.48-.2-1-.31-1.55-.31s-1.08,.1-1.56,.31c-.47,.2-.89,.48-1.24,.83-.35,.35-.62,.75-.82,1.21-.2,.46-.3,.95-.3,1.46s.1,1,.3,1.46c.2,.46,.47,.87,.82,1.21,.35,.34,.77,.62,1.24,.83,.48,.2,1,.31,1.55,.31s1.08-.1,1.55-.31c.48-.2,.89-.48,1.24-.83,.35-.34,.62-.75,.82-1.21,.2-.46,.3-.95,.3-1.46s-.1-1-.3-1.46c-.2-.46-.47-.87-.82-1.21Zm-.04,2.67c0,.36-.07,.7-.21,1.02-.14,.32-.33,.61-.58,.84-.24,.24-.54,.43-.88,.57-.68,.28-1.54,.28-2.2,0-.33-.14-.63-.33-.87-.57-.24-.24-.44-.52-.58-.84-.14-.32-.21-.67-.21-1.02s.07-.7,.21-1.02c.14-.32,.33-.6,.58-.84,.24-.24,.54-.43,.87-.57,.33-.14,.7-.21,1.1-.21s.76,.07,1.1,.21c.34,.14,.63,.33,.88,.57,.24,.24,.44,.52,.58,.84,.14,.32,.21,.66,.21,1.02Z" style="fill: #f1c396;"/>
            <polygon points="21.92 71.83 17.78 71.83 17.78 68.91 16.63 68.91 16.63 76.22 17.78 76.22 17.78 72.98 21.92 72.98 21.92 76.22 23.08 76.22 23.08 68.91 21.92 68.91 21.92 71.83" style="fill: #f1c396;"/>
            <polygon points="25.19 76.22 26.35 76.22 26.35 70.06 31.38 70.06 31.38 68.91 25.19 68.91 25.19 76.22" style="fill: #f1c396;"/>
            <path d="M38.49,69.31c-.24-.16-.5-.27-.77-.32-.26-.05-.51-.08-.74-.08h-4.02v7.31h1.16v-2.98h2.86c.32,0,.62-.04,.9-.11,.29-.07,.55-.2,.76-.37,.21-.17,.39-.4,.51-.67,.12-.27,.19-.61,.19-1,0-.44-.08-.81-.25-1.1-.16-.28-.36-.51-.61-.67Zm-1.51,2.76h-2.86v-2.01h2.86c.16,0,.32,.01,.48,.04,.14,.03,.27,.08,.38,.15,.1,.07,.19,.17,.25,.3,.07,.13,.1,.31,.1,.52s-.03,.38-.09,.5c-.06,.12-.14,.22-.24,.29-.1,.08-.22,.13-.37,.16-.16,.03-.33,.05-.51,.05Z" style="fill: #f1c396;"/>
            <polygon points="42 73.01 46.88 73.01 46.88 71.85 42 71.85 42 70.06 46.91 70.06 46.91 68.91 40.85 68.91 40.85 76.22 47.11 76.22 47.11 75.06 42 75.06 42 73.01" style="fill: #f1c396;"/>
            <path d="M54.94,74.07c-.08,.08-.19,.18-.33,.32-.14,.12-.31,.25-.52,.37-.21,.12-.46,.23-.75,.32-.29,.09-.63,.13-1.02,.13-.46,0-.87-.08-1.23-.23-.36-.15-.67-.35-.91-.6-.25-.25-.44-.53-.57-.85-.13-.32-.2-.65-.2-.98s.07-.66,.2-.98c.13-.31,.32-.6,.56-.84,.24-.24,.54-.44,.88-.59,.34-.15,.72-.22,1.14-.22,.34,0,.65,.04,.93,.12,.29,.08,.54,.18,.76,.3,.22,.12,.42,.24,.57,.36,.16,.13,.29,.23,.38,.31l.12,.1,.82-.8-.13-.12c-.09-.09-.23-.21-.41-.37-.19-.16-.43-.32-.72-.48-.29-.16-.63-.29-1.01-.41-.74-.22-1.75-.27-2.72,.06-.46,.16-.89,.4-1.26,.71-.38,.32-.68,.72-.92,1.19-.23,.48-.35,1.03-.35,1.66s.12,1.18,.36,1.66c.24,.47,.55,.88,.93,1.19,.38,.32,.82,.56,1.3,.71,.48,.16,.96,.24,1.45,.24,.52,0,.98-.06,1.38-.17,.39-.11,.72-.25,1-.41,.27-.16,.5-.32,.68-.48,.17-.16,.31-.28,.41-.37l.12-.11-.79-.88-.13,.13Z" style="fill: #f1c396;"/>
            <path d="M63.83,73.94l-.13,.13c-.08,.08-.19,.18-.33,.32-.14,.12-.31,.25-.52,.37-.21,.12-.46,.23-.75,.32-.29,.09-.63,.13-1.02,.13-.46,0-.87-.08-1.23-.23-.36-.15-.67-.35-.91-.6-.25-.25-.44-.53-.57-.85-.13-.32-.2-.65-.2-.98s.07-.66,.2-.98c.13-.31,.32-.59,.56-.84,.24-.24,.54-.44,.88-.59,.34-.15,.72-.22,1.14-.22,.34,0,.65,.04,.93,.12,.29,.08,.54,.18,.76,.3,.22,.12,.42,.24,.57,.36,.16,.13,.29,.23,.38,.31l.12,.1,.82-.8-.13-.12c-.09-.09-.23-.21-.41-.37-.19-.16-.43-.32-.72-.48-.29-.16-.63-.29-1.01-.41-.74-.22-1.75-.27-2.72,.06-.46,.16-.89,.4-1.26,.71-.38,.32-.68,.72-.92,1.19-.23,.48-.35,1.03-.35,1.66s.12,1.18,.36,1.66c.24,.47,.55,.88,.93,1.19,.38,.32,.82,.56,1.3,.71,.48,.16,.96,.24,1.45,.24,.52,0,.98-.06,1.38-.17,.39-.11,.72-.25,1-.41,.27-.16,.5-.32,.68-.48,.17-.16,.31-.28,.41-.37l.12-.11-.79-.88Z" style="fill: #f1c396;"/>
          </g>
          <g>
            <polygon points="16.48 62.25 16.48 54.23 14.45 54.23 14.45 65.59 16.28 65.59 22.58 57.67 22.58 65.59 24.6 65.59 24.6 54.23 22.78 54.23 16.48 62.25" style="fill: #f1c396;"/>
            <polygon points="44.18 60.72 51.58 60.72 51.58 58.7 44.18 58.7 44.18 56.26 51.63 56.26 51.63 54.23 42.16 54.23 42.16 65.59 51.94 65.59 51.94 63.56 44.18 63.56 44.18 60.72" style="fill: #f1c396;"/>
            <path d="M64.23,55.89c-.25-.45-.58-.8-.96-1.06-.37-.25-.78-.42-1.22-.51-.41-.08-.8-.13-1.15-.13h-6.23v11.36h2.02v-4.53h4.2c.49,0,.96-.06,1.4-.17,.46-.12,.87-.31,1.21-.59,.34-.28,.62-.64,.81-1.07,.2-.43,.3-.96,.3-1.58,0-.7-.13-1.28-.39-1.73Zm-1.63,1.73c0,.3-.04,.53-.12,.7-.08,.17-.18,.3-.32,.4-.14,.1-.3,.17-.51,.21-.23,.05-.48,.07-.75,.07h-4.2v-2.78h4.2c.24,0,.47,.02,.7,.06,.2,.04,.37,.11,.52,.21,.14,.09,.25,.23,.34,.4,.09,.18,.14,.42,.14,.73Z" style="fill: #f1c396;"/>
            <polygon points="5.41 54.23 0 65.59 2.25 65.59 6.27 57.06 10.21 65.59 12.46 65.59 7.14 54.23 5.41 54.23" style="fill: #f1c396;"/>
            <path d="M34.15,54.23h-1.74l-4.44,9.33h-1.42v2.03h13.38v-2.03h-1.41l-4.37-9.33Zm2.13,9.33h-6.07l3.06-6.5,3,6.5Z" style="fill: #f1c396;"/>
          </g>
        </g>
      </g>
    </g>
  </g>
</svg>