<?xml version="1.0" encoding="UTF-8"?>
<svg xmlns="http://www.w3.org/2000/svg" xmlns:xlink="http://www.w3.org/1999/xlink" viewBox="0 0 95.49 112.38">
  <defs>
    <style>
      .cls-1 {
        fill: #fff;
      }

      .cls-2 {
        fill: url(#linear-gradient-5);
      }

      .cls-3 {
        fill: url(#linear-gradient-6);
      }

      .cls-4 {
        fill: url(#linear-gradient-8);
      }

      .cls-5 {
        fill: url(#linear-gradient);
      }

      .cls-6 {
        fill: url(#linear-gradient-7);
      }

      .cls-7 {
        fill: url(#linear-gradient-2);
      }

      .cls-8 {
        fill: url(#linear-gradient-4);
      }

      .cls-9 {
        fill: url(#linear-gradient-3);
      }
    </style>
    <linearGradient id="linear-gradient" x1="30.88" y1="7.67" x2="90.51" y2="69.74" gradientTransform="matrix(1, 0, 0, 1, 0, 0)" gradientUnits="userSpaceOnUse">
      <stop offset=".03" stop-color="#ffd0a1"/>
      <stop offset=".07" stop-color="#e4b78b"/>
      <stop offset=".13" stop-color="#cb9f78"/>
      <stop offset=".18" stop-color="#bc916c"/>
      <stop offset=".22" stop-color="#b78d68"/>
      <stop offset=".56" stop-color="#f1c396"/>
      <stop offset=".75" stop-color="#ffd0a1"/>
      <stop offset=".93" stop-color="#b78d68"/>
    </linearGradient>
    <linearGradient id="linear-gradient-2" x1="45.99" y1="-6.85" x2="105.63" y2="55.22" xlink:href="#linear-gradient"/>
    <linearGradient id="linear-gradient-3" x1="31.17" y1="7.38" x2="90.81" y2="69.45" xlink:href="#linear-gradient"/>
    <linearGradient id="linear-gradient-4" x1="45.69" y1="-6.57" x2="105.33" y2="55.5" xlink:href="#linear-gradient"/>
    <linearGradient id="linear-gradient-5" x1="32.31" y1="6.29" x2="91.95" y2="68.36" xlink:href="#linear-gradient"/>
    <linearGradient id="linear-gradient-6" x1="44.56" y1="-5.48" x2="104.19" y2="56.59" xlink:href="#linear-gradient"/>
    <linearGradient id="linear-gradient-7" x1="38.26" y1=".57" x2="97.9" y2="62.64" xlink:href="#linear-gradient"/>
    <linearGradient id="linear-gradient-8" x1="38.6" y1=".24" x2="98.24" y2="62.31" xlink:href="#linear-gradient"/>
  </defs>
  <g id="_лой_1" data-name="Слой 1"/>
  <g id="_лой_2" data-name="Слой 2">
    <g id="Layer_1" data-name="Layer 1">
      <g>
        <g>
          <path d="M66.43,29.39c-2.46,.14-4.92,.23-7.39,.35l-7.39,.26c-2.46,.08-4.92,.31-7.39,.18-1.23-.06-2.46-.13-3.69-.26-1.23-.12-2.46-.28-3.69-.53v-.18c1.23-.25,2.46-.41,3.69-.53,1.23-.13,2.46-.2,3.69-.26,2.46-.13,4.92,.1,7.39,.18l7.39,.26c2.46,.12,4.92,.21,7.39,.35v.18Z" style="fill: url(#linear-gradient);"/>
          <path d="M65.95,29.21c2.46-.14,4.92-.23,7.39-.35l7.39-.26c2.46-.08,4.92-.31,7.39-.18,1.23,.06,2.46,.13,3.69,.26,1.23,.12,2.46,.28,3.69,.53v.18c-1.23,.25-2.46,.41-3.69,.53-1.23,.13-2.46,.2-3.69,.26-2.46,.13-4.92-.1-7.39-.18l-7.39-.26c-2.46-.12-4.92-.21-7.39-.35v-.18Z" style="fill: url(#linear-gradient-2);"/>
          <path d="M66.28,29.06c.14,2.46,.23,4.92,.35,7.39l.26,7.39c.08,2.46,.31,4.92,.18,7.39-.06,1.23-.13,2.46-.26,3.69-.12,1.23-.28,2.46-.53,3.69h-.18c-.25-1.23-.41-2.46-.53-3.69-.13-1.23-.2-2.46-.26-3.69-.13-2.46,.1-4.92,.18-7.39l.26-7.39c.12-2.46,.21-4.92,.35-7.39h.18Z" style="fill: url(#linear-gradient-3);"/>
          <path d="M66.1,29.54c-.14-2.46-.23-4.92-.35-7.39l-.26-7.39c-.08-2.46-.31-4.92-.18-7.39,.06-1.23,.13-2.46,.26-3.69,.12-1.23,.28-2.46,.53-3.69h.18c.25,1.23,.41,2.46,.53,3.69,.13,1.23,.2,2.46,.26,3.69,.13,2.46-.1,4.92-.18,7.39l-.26,7.39c-.12,2.46-.21,4.92-.35,7.39h-.18Z" style="fill: url(#linear-gradient-4);"/>
          <path d="M66.36,29.26c-.92,1.12-1.87,2.2-2.8,3.3-.94,1.09-1.9,2.17-2.87,3.24-.97,1.07-1.82,2.25-2.93,3.18-.55,.47-1.11,.92-1.71,1.34-.6,.42-1.22,.82-1.9,1.15l-.12-.12c.33-.69,.73-1.31,1.15-1.9,.42-.6,.87-1.17,1.34-1.71,.93-1.11,2.11-1.96,3.18-2.93,1.07-.97,2.15-1.92,3.24-2.87,1.1-.93,2.19-1.89,3.3-2.8l.12,.12Z" style="fill: url(#linear-gradient-5);"/>
          <path d="M66.03,29.34c.92-1.12,1.87-2.2,2.8-3.3,.94-1.09,1.9-2.17,2.87-3.24,.96-1.07,1.82-2.25,2.93-3.18,.55-.47,1.11-.92,1.71-1.34,.6-.42,1.22-.82,1.9-1.15l.12,.12c-.33,.69-.73,1.31-1.15,1.9-.42,.6-.87,1.17-1.34,1.71-.93,1.11-2.11,1.96-3.18,2.93-1.07,.97-2.15,1.92-3.24,2.87-1.1,.93-2.19,1.89-3.3,2.8l-.12-.12Z" style="fill: url(#linear-gradient-6);"/>
          <path d="M66.23,29.46c-1.12-.92-2.2-1.87-3.3-2.8-1.09-.94-2.17-1.9-3.24-2.87-1.07-.96-2.25-1.82-3.18-2.93-.47-.55-.92-1.11-1.34-1.71-.42-.6-.82-1.22-1.15-1.9l.12-.12c.69,.33,1.31,.73,1.9,1.15,.6,.42,1.17,.87,1.71,1.34,1.11,.93,1.96,2.11,2.93,3.18,.97,1.07,1.92,2.15,2.87,3.24,.93,1.1,1.89,2.19,2.8,3.3l-.12,.12Z" style="fill: url(#linear-gradient-7);"/>
          <path d="M66.16,29.14c1.12,.92,2.2,1.87,3.3,2.8,1.09,.94,2.17,1.9,3.24,2.87,1.07,.96,2.25,1.82,3.18,2.93,.47,.55,.92,1.11,1.34,1.71,.42,.6,.82,1.22,1.15,1.9l-.12,.12c-.69-.33-1.31-.73-1.9-1.15-.6-.42-1.17-.87-1.71-1.34-1.11-.93-1.96-2.11-2.93-3.18-.97-1.07-1.92-2.15-2.87-3.24-.93-1.1-1.89-2.19-2.8-3.3l.12-.12Z" style="fill: url(#linear-gradient-8);"/>
        </g>
        <g>
          <path d="M19.89,92.72c-1.66,.09-3.31,.16-4.97,.24l-4.97,.18c-1.66,.05-3.31,.21-4.97,.12-.83-.04-1.66-.09-2.49-.18-.83-.08-1.66-.19-2.49-.36v-.12c.83-.17,1.66-.28,2.49-.36,.83-.09,1.66-.13,2.49-.18,1.66-.09,3.31,.07,4.97,.12l4.97,.18c1.66,.08,3.31,.14,4.97,.24v.12Z" style="fill: #fff;"/>
          <path d="M19.56,92.6c1.66-.09,3.31-.16,4.97-.24l4.97-.18c1.66-.05,3.31-.21,4.97-.12,.83,.04,1.66,.09,2.49,.18,.83,.08,1.66,.19,2.49,.36v.12c-.83,.17-1.66,.28-2.49,.36-.83,.09-1.66,.13-2.49,.18-1.66,.09-3.31-.07-4.97-.12l-4.97-.18c-1.66-.08-3.31-.14-4.97-.24v-.12Z" style="fill: #fff;"/>
          <path d="M19.78,92.5c.09,1.66,.16,3.31,.24,4.97l.18,4.97c.05,1.66,.21,3.31,.12,4.97-.04,.83-.09,1.66-.18,2.49-.08,.83-.19,1.66-.36,2.49h-.12c-.17-.83-.28-1.66-.36-2.49-.09-.83-.13-1.66-.18-2.49-.09-1.66,.07-3.31,.12-4.97l.18-4.97c.08-1.66,.14-3.31,.24-4.97h.12Z" style="fill: #fff;"/>
          <path d="M19.66,92.82c-.09-1.66-.16-3.31-.24-4.97l-.18-4.97c-.05-1.66-.21-3.31-.12-4.97,.04-.83,.09-1.66,.18-2.49,.08-.83,.19-1.66,.36-2.49h.12c.17,.83,.28,1.66,.36,2.49,.09,.83,.13,1.66,.18,2.49,.09,1.66-.07,3.31-.12,4.97l-.18,4.97c-.08,1.66-.14,3.31-.24,4.97h-.12Z" style="fill: #fff;"/>
          <path d="M19.83,92.63c-.62,.75-1.26,1.48-1.89,2.22-.64,.73-1.28,1.46-1.93,2.18-.65,.72-1.22,1.52-1.97,2.14-.37,.32-.75,.62-1.15,.9-.4,.28-.82,.55-1.28,.77l-.08-.08c.22-.46,.49-.88,.77-1.28,.28-.4,.59-.78,.9-1.15,.62-.75,1.42-1.32,2.14-1.97,.72-.65,1.45-1.29,2.18-1.93,.74-.63,1.47-1.27,2.22-1.89l.08,.08Z" style="fill: #fff;"/>
          <path d="M19.62,92.69c.62-.75,1.26-1.48,1.89-2.22,.64-.73,1.28-1.46,1.93-2.18,.65-.72,1.22-1.52,1.97-2.14,.37-.32,.75-.62,1.15-.9,.4-.28,.82-.55,1.28-.77l.08,.08c-.22,.46-.49,.88-.77,1.28-.28,.4-.59,.78-.9,1.15-.62,.75-1.42,1.32-2.14,1.97-.72,.65-1.45,1.29-2.18,1.93-.74,.63-1.47,1.27-2.22,1.89l-.08-.08Z" style="fill: #fff;"/>
          <path d="M19.75,92.77c-.75-.62-1.48-1.26-2.22-1.89-.73-.64-1.46-1.28-2.18-1.93-.72-.65-1.52-1.22-2.14-1.97-.32-.37-.62-.75-.9-1.15-.28-.4-.55-.82-.77-1.28l.08-.08c.46,.22,.88,.49,1.28,.77,.4,.28,.78,.59,1.15,.9,.75,.62,1.32,1.42,1.97,2.14,.65,.72,1.29,1.45,1.93,2.18,.63,.74,1.27,1.47,1.89,2.22l-.08,.08Z" style="fill: #fff;"/>
          <path d="M19.7,92.55c.75,.62,1.48,1.26,2.22,1.89,.73,.64,1.46,1.28,2.18,1.93,.72,.65,1.52,1.22,2.14,1.97,.32,.37,.62,.75,.9,1.15,.28,.4,.55,.82,.77,1.28l-.08,.08c-.46-.22-.88-.49-1.28-.77-.4-.28-.78-.59-1.15-.9-.75-.62-1.32-1.42-1.97-2.14-.65-.72-1.29-1.45-1.93-2.18-.63-.74-1.27-1.47-1.89-2.22l.08-.08Z" style="fill: #fff;"/>
        </g>
      </g>
    </g>
  </g>
</svg>