<?xml version="1.0" encoding="UTF-8"?>
<svg xmlns="http://www.w3.org/2000/svg" viewBox="0 0 39.45 39.45">
  <g id="_лой_1" data-name="Слой 1"/>
  <g id="_лой_2" data-name="Слой 2">
    <g id="Layer_1" data-name="Layer 1">
      <g>
        <path d="M19.89,19.78c-1.66,.09-3.31,.16-4.97,.24l-4.97,.18c-1.66,.05-3.31,.21-4.97,.12-.83-.04-1.66-.09-2.49-.18-.83-.08-1.66-.19-2.49-.36v-.12c.83-.17,1.66-.28,2.49-.36,.83-.09,1.66-.13,2.49-.18,1.66-.09,3.31,.07,4.97,.12l4.97,.18c1.66,.08,3.31,.14,4.97,.24v.12Z" style="fill: #fff;"/>
        <path d="M19.56,19.66c1.66-.09,3.31-.16,4.97-.24l4.97-.18c1.66-.05,3.31-.21,4.97-.12,.83,.04,1.66,.09,2.49,.18,.83,.08,1.66,.19,2.49,.36v.12c-.83,.17-1.66,.28-2.49,.36-.83,.09-1.66,.13-2.49,.18-1.66,.09-3.31-.07-4.97-.12l-4.97-.18c-1.66-.08-3.31-.14-4.97-.24v-.12Z" style="fill: #fff;"/>
        <path d="M19.78,19.56c.09,1.66,.16,3.31,.24,4.97l.18,4.97c.05,1.66,.21,3.31,.12,4.97-.04,.83-.09,1.66-.18,2.49-.08,.83-.19,1.66-.36,2.49h-.12c-.17-.83-.28-1.66-.36-2.49-.09-.83-.13-1.66-.18-2.49-.09-1.66,.07-3.31,.12-4.97l.18-4.97c.08-1.66,.14-3.31,.24-4.97h.12Z" style="fill: #fff;"/>
        <path d="M19.66,19.89c-.09-1.66-.16-3.31-.24-4.97l-.18-4.97c-.05-1.66-.21-3.31-.12-4.97,.04-.83,.09-1.66,.18-2.49,.08-.83,.19-1.66,.36-2.49h.12c.17,.83,.28,1.66,.36,2.49,.09,.83,.13,1.66,.18,2.49,.09,1.66-.07,3.31-.12,4.97l-.18,4.97c-.08,1.66-.14,3.31-.24,4.97h-.12Z" style="fill: #fff;"/>
        <path d="M19.83,19.7c-.62,.75-1.26,1.48-1.89,2.22-.64,.73-1.28,1.46-1.93,2.18-.65,.72-1.22,1.52-1.97,2.14-.37,.32-.75,.62-1.15,.9-.4,.28-.82,.55-1.28,.77l-.08-.08c.22-.46,.49-.88,.77-1.28,.28-.4,.59-.78,.9-1.15,.62-.75,1.42-1.32,2.14-1.97,.72-.65,1.45-1.29,2.18-1.93,.74-.63,1.47-1.27,2.22-1.89l.08,.08Z" style="fill: #fff;"/>
        <path d="M19.62,19.75c.62-.75,1.26-1.48,1.89-2.22,.64-.73,1.28-1.46,1.93-2.18,.65-.72,1.22-1.52,1.97-2.14,.37-.32,.75-.62,1.15-.9,.4-.28,.82-.55,1.28-.77l.08,.08c-.22,.46-.49,.88-.77,1.28-.28,.4-.59,.78-.9,1.15-.62,.75-1.42,1.32-2.14,1.97-.72,.65-1.45,1.29-2.18,1.93-.74,.63-1.47,1.27-2.22,1.89l-.08-.08Z" style="fill: #fff;"/>
        <path d="M19.75,19.83c-.75-.62-1.48-1.26-2.22-1.89-.73-.64-1.46-1.28-2.18-1.93-.72-.65-1.52-1.22-2.14-1.97-.32-.37-.62-.75-.9-1.15-.28-.4-.55-.82-.77-1.28l.08-.08c.46,.22,.88,.49,1.28,.77,.4,.28,.78,.59,1.15,.9,.75,.62,1.32,1.42,1.97,2.14,.65,.72,1.29,1.45,1.93,2.18,.63,.74,1.27,1.47,1.89,2.22l-.08,.08Z" style="fill: #fff;"/>
        <path d="M19.7,19.62c.75,.62,1.48,1.26,2.22,1.89,.73,.64,1.46,1.28,2.18,1.93,.72,.65,1.52,1.22,2.14,1.97,.32,.37,.62,.75,.9,1.15,.28,.4,.55,.82,.77,1.28l-.08,.08c-.46-.22-.88-.49-1.28-.77-.4-.28-.78-.59-1.15-.9-.75-.62-1.32-1.42-1.97-2.14-.65-.72-1.29-1.45-1.93-2.18-.63-.74-1.27-1.47-1.89-2.22l.08-.08Z" style="fill: #fff;"/>
      </g>
    </g>
  </g>
</svg>