<?xml version="1.0" encoding="UTF-8"?>
<svg xmlns="http://www.w3.org/2000/svg" viewBox="0 0 23.49 23.49">
  <g id="_лой_1" data-name="Слой 1"/>
  <g id="_лой_2" data-name="Слой 2">
    <g id="Layer_1" data-name="Layer 1">
      <g>
        <path d="M11.93,0c.43,.18,.57,.51,.56,.97-.02,.63,0,1.25,0,1.88,0,.49-.3,.82-.73,.82s-.73-.33-.73-.82c0-.63,.02-1.25,0-1.88-.02-.46,.13-.79,.56-.97h.37Z" style="fill: #f2c76b;"/>
        <path d="M23.49,11.93c-.18,.43-.51,.57-.97,.56-.63-.02-1.25,0-1.88,0-.49,0-.82-.3-.82-.73s.33-.73,.82-.73c.63,0,1.25,.02,1.88,0,.46-.02,.79,.13,.97,.56v.37Z" style="fill: #f2c76b;"/>
        <path d="M18.36,11.77c-.03,3.66-3,6.61-6.64,6.58-3.66-.03-6.61-3-6.58-6.63,.03-3.66,3-6.61,6.64-6.58,3.66,.03,6.61,3,6.58,6.63Z" style="fill: #f2c76b;"/>
        <path d="M1.81,12.48c-.34,0-.69,0-1.03,0C.33,12.47,0,12.17,0,11.75c0-.43,.32-.74,.79-.74,.7,0,1.39,0,2.09,0,.47,0,.79,.31,.79,.74,0,.42-.33,.73-.8,.73-.35,0-.7,0-1.05,0Z" style="fill: #f2c76b;"/>
        <path d="M11.01,21.66c0-.35,0-.7,0-1.05,0-.45,.31-.78,.73-.78,.42,0,.73,.32,.74,.77,0,.71,0,1.42,0,2.13,0,.45-.32,.77-.74,.77-.41,0-.71-.32-.73-.76,0-.02,0-.03,0-.05,0-.34,0-.69,0-1.03Z" style="fill: #f2c76b;"/>
        <path d="M6.28,5.5c-.04,.33-.19,.56-.47,.68-.3,.13-.59,.07-.82-.16-.43-.42-.85-.85-1.28-1.28-.1-.1-.21-.2-.3-.31-.25-.29-.23-.71,.03-.98,.26-.27,.69-.33,.97-.06,.58,.54,1.13,1.11,1.68,1.68,.1,.11,.13,.28,.19,.42Z" style="fill: #f2c76b;"/>
        <path d="M17.24,18.05c.02-.38,.15-.6,.41-.73,.27-.13,.55-.12,.77,.08,.57,.55,1.14,1.11,1.68,1.68,.26,.28,.21,.71-.07,.97-.29,.27-.71,.28-1.01,0-.53-.52-1.05-1.04-1.57-1.57-.02-.02-.03-.03-.04-.05-.07-.15-.13-.3-.17-.38Z" style="fill: #f2c76b;"/>
        <path d="M6.69,17.64c-.05,.1-.11,.29-.24,.43-.49,.51-1,1.01-1.5,1.51-.32,.31-.75,.31-1.05,.01-.28-.29-.28-.72,.02-1.03,.5-.51,1.01-1.02,1.52-1.52,.24-.23,.52-.29,.82-.15,.28,.12,.41,.36,.43,.75Z" style="fill: #f2c76b;"/>
        <path d="M20.57,3.77c-.05,.09-.11,.28-.24,.42-.49,.51-1,1.01-1.51,1.51-.32,.31-.76,.3-1.04,0-.28-.29-.28-.72,.02-1.03,.5-.51,1.01-1.02,1.52-1.52,.24-.23,.55-.28,.82-.15,.27,.13,.41,.36,.42,.77Z" style="fill: #f2c76b;"/>
      </g>
    </g>
  </g>
</svg>